<svg width="20" height="21" viewBox="0 0 20 21" fill="none" xmlns="http://www.w3.org/2000/svg">
<path d="M18.3346 5.98828V14.3216C18.3346 14.8741 18.1151 15.4041 17.7244 15.7948C17.3337 16.1855 16.8038 16.4049 16.2513 16.4049H3.7513C3.19877 16.4049 2.66886 16.1855 2.27816 15.7948C1.88746 15.4041 1.66797 14.8741 1.66797 14.3216V5.98828" stroke="#C1C1C1" stroke-width="1.4" stroke-linecap="round" stroke-linejoin="round"/>
<path d="M18.3346 5.98763C18.3346 5.4351 18.1151 4.90519 17.7244 4.51449C17.3337 4.12379 16.8038 3.9043 16.2513 3.9043H3.7513C3.19877 3.9043 2.66886 4.12379 2.27816 4.51449C1.88746 4.90519 1.66797 5.4351 1.66797 5.98763L8.89714 10.5015C9.22824 10.7085 9.61084 10.8182 10.0013 10.8182C10.3918 10.8182 10.7744 10.7085 11.1055 10.5015L18.3346 5.98763Z" stroke="#C1C1C1" stroke-width="1.4" stroke-linecap="round" stroke-linejoin="round"/>
</svg>
