<svg width="19" height="20" viewBox="0 0 19 20" fill="none" xmlns="http://www.w3.org/2000/svg">
<path fill-rule="evenodd" clip-rule="evenodd" d="M0.851562 9.43164C0.851562 5.8365 0.851562 4.03893 1.70825 2.74419C2.09081 2.16603 2.58595 1.67089 3.16412 1.28833C4.45885 0.431641 6.25642 0.431641 9.85156 0.431641C13.4467 0.431641 15.2443 0.431641 16.539 1.28833C17.1172 1.67089 17.6123 2.16603 17.9949 2.74419C18.8516 4.03893 18.8516 5.8365 18.8516 9.43164C18.8516 13.0268 18.8516 14.8244 17.9949 16.1191C17.6123 16.6973 17.1172 17.1924 16.539 17.5749C15.2443 18.4316 13.4467 18.4316 9.85156 18.4316C6.25642 18.4316 4.45885 18.4316 3.16412 17.5749C2.58595 17.1924 2.09081 16.6973 1.70825 16.1191C0.851562 14.8244 0.851562 13.0268 0.851562 9.43164ZM14.5108 9.43187C14.5108 12.0052 12.4247 14.0913 9.8514 14.0913C7.27808 14.0913 5.19199 12.0052 5.19199 9.43187C5.19199 6.85855 7.27808 4.77246 9.8514 4.77246C12.4247 4.77246 14.5108 6.85855 14.5108 9.43187ZM9.8514 12.5149C11.5541 12.5149 12.9344 11.1346 12.9344 9.43187C12.9344 7.72917 11.5541 6.34886 9.8514 6.34886C8.14871 6.34886 6.7684 7.72917 6.7684 9.43187C6.7684 11.1346 8.14871 12.5149 9.8514 12.5149ZM14.6948 5.63319C15.2995 5.63319 15.7897 5.14302 15.7897 4.53837C15.7897 3.93371 15.2995 3.44354 14.6948 3.44354C14.0902 3.44354 13.6 3.93371 13.6 4.53837C13.6 5.14302 14.0902 5.63319 14.6948 5.63319Z" fill="white"/>
</svg>
