<svg width="20" height="21" viewBox="0 0 20 21" fill="none" xmlns="http://www.w3.org/2000/svg">
<path d="M16.8621 9.34229C16.8621 14.7211 11.353 18.0349 10.2081 18.6661C10.1446 18.7011 10.0734 18.7194 10.001 18.7194C9.92852 18.7194 9.85727 18.7011 9.79385 18.6661C8.6481 18.0349 3.14062 14.7211 3.14062 9.34229C3.14062 5.05432 5.71341 2.05273 10.0014 2.05273C14.2894 2.05273 16.8621 5.05432 16.8621 9.34229Z" stroke="#C1C1C1" stroke-width="1.4" stroke-linecap="round" stroke-linejoin="round"/>
<path d="M6.57031 8.9128C6.57031 9.8226 6.93173 10.6951 7.57505 11.3384C8.21837 11.9818 9.0909 12.3432 10.0007 12.3432C10.9105 12.3432 11.783 11.9818 12.4263 11.3384C13.0697 10.6951 13.4311 9.8226 13.4311 8.9128C13.4311 8.00301 13.0697 7.13048 12.4263 6.48716C11.783 5.84384 10.9105 5.48242 10.0007 5.48242C9.0909 5.48242 8.21837 5.84384 7.57505 6.48716C6.93173 7.13048 6.57031 8.00301 6.57031 8.9128V8.9128Z" stroke="#C1C1C1" stroke-width="1.4" stroke-linecap="round" stroke-linejoin="round"/>
</svg>
