<svg xmlns="http://www.w3.org/2000/svg" xmlns:xlink="http://www.w3.org/1999/xlink" version="1.1" width="792" height="612" viewBox="0 0 792 612">
<path transform="matrix(1,0,0,-1,0,612)" d="M73.7892 226.834 74.992 233.2945 89.7253 236.7879 118.063 338.423 101.3272 341.3925 102.5271 347.853H135.5026L154.4511 256.8705 206.4203 347.853H239.2364L238.0365 341.3925 221.478 338.423 212.0301 236.7879 225.47 233.2945 224.2675 226.834H179.9229L181.1256 233.2945 197.3044 236.7879 206.352 332.8359 146.0211 227.882 124.126 330.5653 98.2108 236.7879 112.2911 233.2945 111.0886 226.834ZM315.5717 350.2984C315.7413 350.0654 315.9082 349.9489 316.0678 349.9489 316.2249 349.9489 316.3615 349.9489 316.4678 349.9489 316.6804 349.9489 316.8652 349.9489 317.0273 349.9489 317.1866 349.9489 317.374 349.9489 317.5892 349.9489 326.338 349.9489 333.8694 348.5517 340.1804 345.7568 346.4915 342.9646 351.5596 338.656 355.3872 332.8359 359.2378 327.13 361.7059 320.4646 362.7969 312.8397 363.888 305.2148 363.6096 296.6859 361.9641 287.2562 361.9414 287.1397 361.9159 286.9954 361.8831 286.8208 361.8502 286.6462 361.8122 286.4409 361.7691 286.2082 361.7464 286.0917 361.726 285.9752 361.7033 285.8587 361.6832 285.7422 361.6705 285.6841 361.6705 285.6841 361.6503 285.5676 361.6274 285.4511 361.6072 285.3346 361.5843 285.2184 361.5642 285.1019 361.5415 284.9854 359.7466 275.3226 356.8479 266.766 352.8482 259.3159 348.8482 251.8656 343.6943 245.5191 337.3858 240.2813 331.0722 235.0412 324.1534 231.1123 316.6248 228.492 309.0909 225.8745 300.9396 224.5051 292.1678 224.3886 283.396 224.2721 275.7407 225.5834 269.2069 228.3174 262.6705 231.054 257.3722 235.2742 253.3116 240.98 249.2688 246.8001 246.6561 253.5517 245.469 261.2373 244.2841 268.9203 244.4791 277.5934 246.064 287.2562 246.064 287.2562 246.0688 287.2865 246.079 287.3446 246.0892 287.403 246.1068 287.4889 246.1272 287.6054 246.1272 287.6054 246.1323 287.6357 246.1448 287.6941 246.155 287.7523 246.1703 287.8384 246.1929 287.9549 246.1929 287.9549 246.198 287.9853 246.2083 288.0434 246.2207 288.1018 246.236 288.1877 246.2587 288.3042 246.2587 288.3042 246.2638 288.3345 246.274 288.3929 246.2842 288.451 246.3018 288.5372 246.3222 288.6534 248.0131 298.3164 250.8888 306.9031 254.9546 314.4115 259.0177 321.9202 264.1618 328.3526 270.3866 333.7095 276.7178 339.0636 283.629 343.0811 291.1147 345.7568 298.603 348.4352 306.7342 349.8327 315.5057 349.9489ZM279.6772 234.6919C280.8037 233.8767 282.0189 233.2361 283.32 232.7703 284.6214 232.3046 285.9327 231.8995 287.2568 231.5503 288.6868 231.2008 290.1095 230.9681 291.5297 230.8516 292.9476 230.7351 294.3499 230.6769 295.7372 230.6769 295.9523 230.6769 296.1904 230.6769 296.4586 230.6769 296.7245 230.6769 296.9649 230.6769 297.1803 230.6769 297.3929 230.6769 297.6307 230.6769 297.8991 230.6769 298.165 230.6769 298.4182 230.7351 298.6534 230.8516 299.3978 230.8516 300.1243 230.8793 300.8307 230.9374 301.5343 230.9958 302.271 231.0843 303.0381 231.2008 303.8304 231.4338 304.5875 231.6362 305.314 231.8108 306.038 231.9857 306.7342 232.13 307.3975 232.2465 311.0275 233.411 314.4402 234.9831 317.6374 236.9625 320.8346 238.9422 323.8118 241.3295 326.571 244.1217 329.3328 246.9163 331.7961 249.9721 333.9604 253.2909 336.1249 256.6097 337.968 260.0728 339.4919 263.6802 340.0515 264.9611 340.5932 266.3002 341.1196 267.6977 341.6462 269.0952 342.1043 270.5508 342.4918 272.0645 342.9853 273.5759 343.4057 275.1199 343.7524 276.692 344.0968 278.2616 344.4106 279.8059 344.6915 281.3196 344.7802 281.7856 344.8664 282.2513 344.9523 282.7171 345.0385 283.1828 345.1243 283.6463 345.2105 284.112 345.1904 284.5777 345.2258 285.0435 345.3117 285.5095 345.3979 285.9752 345.4841 286.4409 345.57 286.9067 345.6383 287.8384 345.7295 288.7699 345.8486 289.7016 345.9699 290.6331 346.0637 291.5649 346.1295 292.4963 346.4408 297.6177 346.3345 302.6529 345.8157 307.6019 345.2941 312.5486 344.2385 317.3508 342.6511 322.0087 341.1677 326.6643 338.9856 330.5653 336.0997 333.7095 333.2137 336.8509 329.7481 339.2963 325.6977 341.0433 325.3989 341.1595 325.1001 341.276 324.8016 341.3925 324.5029 341.509 324.2571 341.6255 324.0675 341.7418 323.7457 341.7418 323.4648 341.8002 323.2193 341.9167 322.9739 342.0329 322.7003 342.1494 322.4015 342.2659 322.1028 342.3824 321.7992 342.4683 321.4902 342.5267 321.1815 342.5848 320.9309 342.6735 320.7385 342.79 320.417 342.79 320.131 342.8178 319.8753 342.8759 319.6196 342.9343 319.3435 343.0227 319.0448 343.1392 318.4245 343.2557 317.8273 343.3419 317.2501 343.4 316.6727 343.4581 316.131 343.5469 315.6197 343.6634 315.2982 343.6634 314.9793 343.6634 314.6579 343.6634 314.3387 343.6634 314.083 343.7215 313.8908 343.838 313.5691 343.838 313.278 343.838 313.0098 343.838 312.7439 343.838 312.4502 343.838 312.1288 343.838 307.8607 343.838 303.6685 343.1089 299.5571 341.6533 295.4435 340.1977 291.4209 338.0737 287.4869 335.2791 283.553 332.4866 280.0468 329.1401 276.9761 325.239 273.903 321.338 271.2728 316.9431 269.083 312.0548 268.374 310.5411 267.7462 309.0271 267.1968 307.5134 266.65 305.9994 266.116 304.4273 265.5995 302.7997 265.1893 301.1692 264.7743 299.5087 264.354 297.8226 263.9339 296.134 263.5617 294.4154 263.2377 292.6709 263.0631 291.7395 262.8907 290.8077 262.7186 289.8763 262.544 288.9445 262.425 288.013 262.3592 287.0816 262.1846 286.1498 262.0655 285.2184 261.9998 284.2866 261.9315 283.3551 261.8657 282.426 261.7997 281.4945 261.4022 276.4871 261.4351 271.6265 261.8935 266.9128 262.349 262.1968 263.2884 257.6273 264.7086 253.2022 266.0173 248.7796 267.931 244.995 270.4422 241.8534 272.9511 238.7092 276.0092 236.2056 279.6114 234.3424ZM431.3375 347.853C431.401 347.62 431.4869 347.5035 431.5932 347.5035 431.6998 347.5035 431.8061 347.5035 431.9124 347.5035 432.0213 347.5035 432.0998 347.5035 432.1528 347.5035 432.2061 347.5035 432.2869 347.5035 432.3934 347.5035 432.3934 347.5035 432.4187 347.5035 432.4717 347.5035 432.525 347.5035 432.606 347.5035 432.7123 347.5035 436.6386 347.3872 440.3475 346.9518 443.8358 346.1947 447.3241 345.4379 450.5924 344.3621 453.6403 342.9646 456.7742 341.4506 458.9084 339.0052 460.0426 335.6283 461.1767 332.2536 461.3083 327.9453 460.44 322.7074 460.4196 322.5909 460.402 322.5025 460.3918 322.4441 460.3816 322.386 460.3768 322.3582 460.3768 322.3582 460.3538 322.2417 460.3388 322.1529 460.326 322.0948 460.3158 322.0364 460.3107 322.0087 460.3107 322.0087 460.2881 321.8922 460.2728 321.8037 460.2628 321.7453 460.2501 321.6872 460.245 321.6594 460.245 321.6594 460.2249 321.5429 460.207 321.4542 460.1968 321.3961 460.1869 321.338 460.1818 321.3099 460.1818 321.3099 459.445 317.3508 458.225 313.8015 456.5211 310.6573 454.8149 307.5134 452.6683 304.7185 450.0811 302.2756 447.4913 299.8301 444.7369 297.648 441.8181 295.7267 438.9018 293.8051 435.7755 292.2052 432.4414 290.9242 436.2817 290.342 439.77 289.4383 442.904 288.218 446.0383 286.9954 448.8735 285.4511 451.4074 283.5879 453.8378 281.7272 455.5287 279.049 456.4806 275.5553 457.4299 272.0645 457.6428 267.7558 457.1186 262.6347 457.0957 262.5182 457.0679 262.3714 457.0376 262.1968 457.0047 262.0219 456.9667 261.8195 456.9236 261.5865 456.9009 261.4703 456.8757 261.3234 456.8426 261.1485 456.8097 260.9739 456.7717 260.7715 456.7289 260.5385 456.2529 257.9766 455.5845 255.5311 454.7239 253.2022 453.8656 250.8758 452.7391 248.5468 451.3442 246.2179 449.9748 244.0052 448.4432 241.9396 446.7495 240.0182 445.0609 238.0966 443.1549 236.3221 441.0386 234.6919 439.4157 233.411 437.7399 232.3046 436.0184 231.3754 434.2995 230.4439 432.5301 229.6871 430.7151 229.1049 428.8997 228.5226 427.1329 228.0566 425.4114 227.7074 423.6951 227.3581 421.9586 227.0667 420.2067 226.834 419.5661 226.834 418.9813 226.834 418.4473 226.834 417.9155 226.834 417.3814 226.834 416.8474 226.834 416.3131 226.834 415.779 226.834 415.245 226.834 414.7132 226.834 414.1791 226.834 413.6448 226.834H363.5388L364.7387 233.2945 381.0138 236.4386 399.9696 338.423 384.8312 341.3925 386.0337 347.853ZM395.9345 237.4866C396.7875 236.9044 397.7345 236.4106 398.7799 236.0032 399.8254 235.5956 400.8506 235.2158 401.8533 234.8666 402.3621 234.75 402.8961 234.6058 403.4506 234.4311 404.005 234.2563 404.5924 234.1094 405.21 233.9932 405.7441 233.9932 406.296 233.9348 406.8578 233.8183 407.4225 233.7021 407.9744 233.6437 408.5084 233.6437 408.8072 233.5272 409.1363 233.4413 409.4983 233.3829 409.8628 233.3248 410.2577 233.2945 410.6857 233.2945 411.1109 233.2945 411.5109 233.2945 411.8856 233.2945 412.2575 233.2945 412.6575 233.2945 413.083 233.2945 415.2195 233.2945 417.3435 233.5272 419.4598 233.9932 421.5711 234.4589 423.6749 235.1577 425.7709 236.0891 427.7582 237.0209 429.6339 238.36 431.401 240.1067 433.1653 241.8534 434.8185 244.0052 436.3628 246.5671 436.7273 247.3824 437.0919 248.1973 437.4564 249.0126 437.8235 249.8278 438.1347 250.6428 438.393 251.458 438.7805 252.3895 439.079 253.2909 439.2941 254.1643 439.5095 255.0376 439.6941 255.8806 439.846 256.6956 439.869 256.8121 439.884 256.9008 439.8942 256.9589 439.907 257.0173 439.922 257.1032 439.9449 257.2197 439.9449 257.2197 439.9498 257.25 439.96 257.3084 439.9702 257.3666 439.9877 257.4527 440.0082 257.5689 440.0512 257.802 440.0892 258.0046 440.1221 258.1792 440.155 258.3539 440.1828 258.5007 440.2032 258.6172 440.5297 260.9461 440.598 263.1864 440.4132 265.3407 440.2259 267.495 439.793 269.619 439.1144 271.7152 438.4361 273.8086 437.5627 275.7022 436.4892 277.3908 435.416 279.0768 434.0792 280.5046 432.4819 281.6691 431.2035 282.8336 429.8315 283.7628 428.358 284.4612 426.8871 285.16 425.2774 285.6841 423.5281 286.0333 422.695 286.1498 421.8622 286.2663 421.0319 286.3828 420.2016 286.4993 419.3688 286.6156 418.5357 286.7321 417.5765 286.7321 416.6725 286.7624 415.8298 286.8208 414.9867 286.8789 414.1386 286.9067 413.2854 286.9067 412.8576 286.9067 412.4577 286.9067 412.0855 286.9067 411.7107 286.9067 411.3641 286.9067 411.0452 286.9067 410.6171 286.9067 410.2172 286.9067 409.8427 286.9067 409.4705 286.9067 409.1236 286.9067 408.8021 286.9067 408.4832 286.9067 408.1618 286.9067 407.8426 286.9067 407.5211 286.9067 407.2022 286.9067 406.8808 286.9067 406.7745 286.9067 406.6427 286.9067 406.4834 286.9067 406.3212 286.9067 406.1871 286.9067 406.0809 286.9067 405.8683 286.9067 405.7087 286.9067 405.5998 286.9067 405.4935 286.9067 405.3339 286.9067 405.1213 286.9067ZM406.387 293.7166C406.6631 293.4862 406.9619 293.3697 407.2833 293.3697 407.6022 293.3697 407.9237 293.3697 408.2428 293.3697 408.458 293.3697 408.6173 293.3697 408.7236 293.3697 408.8299 293.3697 408.9895 293.3697 409.2046 293.3697 409.3109 293.3697 409.4427 293.3697 409.602 293.3697 409.7642 293.3697 409.8983 293.3697 410.0046 293.3697 413.7386 293.3697 417.3486 293.6886 420.827 294.3292 424.3102 294.9695 427.7049 295.871 431.0161 297.0354 434.3477 298.3164 437.0995 300.615 439.2612 303.9338 441.4258 307.2526 443.0611 311.5891 444.1623 316.9431 444.5294 318.9229 444.704 320.872 444.689 322.7936 444.6711 324.7149 444.4104 326.6059 443.9015 328.4691 443.5016 330.3323 442.8232 331.9906 441.8663 333.4462 440.9093 334.9018 439.6867 336.2105 438.1957 337.375 437.2563 338.0737 436.269 338.656 435.2389 339.1217 434.2034 339.5874 433.12 339.9369 431.9884 340.1697 430.8619 340.4027 429.6971 340.6054 428.4998 340.78 427.305 340.9546 426.1329 341.1014 424.9811 341.2179 424.8748 341.2179 424.7685 341.2179 424.6597 341.2179 424.5531 341.2179 424.5001 341.2179 424.5001 341.2179 424.3938 341.2179 424.2875 341.2179 424.1812 341.2179 424.0723 341.2179 423.966 341.2179 423.8595 341.2179 423.7532 341.2179 423.6216 341.2179 423.4595 341.2179 423.3002 341.2179 423.1128 341.2179 422.9002 341.2179 422.7914 341.2179 422.6318 341.2179 422.4192 341.2179 422.2066 341.2179 422.0444 341.2179 421.9381 341.2179 421.7281 341.2179 421.5382 341.2179 421.3786 341.2179 421.2193 341.2179 421.0345 341.2179 420.8193 341.2179 420.5004 341.2179 420.1787 341.2179 419.8598 341.2179 419.5383 341.2179 419.2194 341.2179 418.8977 341.2179 418.5561 341.1014 418.2245 341.0433 417.9056 341.0433 417.5838 341.0433 417.2649 341.0433 416.9435 341.0433 416.8372 341.0433 416.7057 341.0433 416.5461 341.0433 416.3839 341.0433 416.2499 341.0433 416.1436 341.0433 415.931 341.0433 415.7714 341.0433 415.6625 341.0433 415.5562 341.0433 415.3966 341.0433 415.184 341.0433ZM494.1927 236.4386 508.8172 233.2945 507.6147 226.834H461.9891L463.1916 233.2945 479.4642 236.4386 498.4228 338.423 483.2844 341.3925 484.4843 347.853H530.1096L528.9097 341.3925 513.1485 338.423ZM595.0202 226.834 595.5392 229.6287 695.615 339.1217 631.8967 337.375C631.0006 337.142 630.193 336.9674 629.4767 336.8509 628.7601 336.7346 628.1147 336.5597 627.5401 336.327 627.0894 336.2105 626.5933 335.8332 626.0465 335.1929 625.5023 334.5523 624.9807 333.7676 624.4872 332.8359 624.039 332.1374 623.6416 331.4387 623.2972 330.7399 622.9553 330.0412 622.601 329.2843 622.2365 328.4691 621.8719 327.6541 621.5377 326.8692 621.2392 326.1124 620.9379 325.3555 620.6165 324.6265 620.2721 323.9303 620.0796 323.4643 619.9177 323.0263 619.7885 322.619 619.6595 322.2113 619.5101 321.834 619.338 321.4848 619.3176 321.3683 619.257 321.1937 619.1606 320.9607 619.062 320.7277 619.0038 320.5531 618.9834 320.4366 618.834 320.2038 618.7127 319.9986 618.6291 319.824 618.5429 319.6494 618.4797 319.4467 618.4366 319.214L613.5358 319.5632C614.1611 321.7759 614.8242 324.0465 615.5254 326.3732 616.2242 328.7021 616.9076 331.0892 617.576 333.5346 617.8975 334.6965 618.2215 335.8613 618.5429 337.0258 618.8672 338.1902 619.1912 339.3547 619.5127 340.5192 619.7304 341.6837 619.9988 342.8481 620.3228 344.0126 620.6468 345.1745 620.9683 346.339 621.2923 347.5035L718.2088 347.853 717.6569 344.886 619.6697 238.0107H691.2252C692.1468 239.5244 693.0556 241.0965 693.9442 242.7242 694.8351 244.3547 695.6555 246.043 696.4072 247.79 697.2426 249.4202 698.0046 251.0782 698.6908 252.7668 699.3794 254.4554 700.0982 256.1717 700.85 257.9185L706.1967 258.2677C705.7029 256.754 705.2196 255.2984 704.7462 253.9009 704.2728 252.506 703.8094 251.1669 703.3589 249.8859 703.0145 248.6049 702.6423 247.324 702.2449 246.043 701.8475 244.762 701.4197 243.4813 700.969 242.2029 700.6249 240.9219 700.2476 239.6106 699.84 238.2712 699.4324 236.9347 699.0021 235.6234 698.5514 234.3424 698.2047 233.0614 697.8325 231.783 697.4351 230.502 697.0377 229.2211 696.6782 227.9985 696.3542 226.834" fill="#1f1a17" fill-rule="evenodd"/>
<path transform="matrix(1,0,0,-1,0,612)" d="M403.7386 483.1404C507.1289 483.1404 591.4556 398.8137 591.4556 295.4231 591.4556 223.1546 550.2472 160.2119 490.134 128.8596 537.8077 161.5924 569.1841 216.4723 569.1841 278.4543 569.1841 378.3407 487.7167 459.8082 387.8303 459.8082 321.6651 459.8082 263.594 424.0565 231.9174 370.889 261.0652 436.883 327.1669 483.1404 403.7386 483.1404" fill="#d9261c" fill-rule="evenodd"/>
<path transform="matrix(1,0,0,-1,0,612)" d="M120.9084 168.6526V197.532H110.1217V201.3973H136.074V197.532H125.2395V168.6526ZM142.683 168.6526V201.3973H166.3551V197.532H147.0118V187.507H165.1277V183.6646H147.0118V172.518H167.1168V168.6526ZM198.5355 180.1341 202.8736 179.0376C201.9674 175.4841 200.3272 172.7702 197.9714 170.8937 195.6084 169.0265 192.7247 168.0951 189.3112 168.0951 185.7807 168.0951 182.9132 168.8131 180.7019 170.2468 178.4928 171.6877 176.8065 173.7683 175.6551 176.4913 174.5033 179.2188 173.9254 182.1484 173.9254 185.2727 173.9254 188.6817 174.5722 191.6546 175.8776 194.1942 177.1807 196.7315 179.0317 198.6608 181.4428 199.9797 183.8446 201.2987 186.4896 201.9549 189.3779 201.9549 192.6584 201.9549 195.4089 201.1243 197.6431 199.4545 199.8777 197.7843 201.433 195.4443 202.3092 192.4163L198.0471 191.4114C197.2854 193.7974 196.1864 195.5271 194.739 196.619 193.2985 197.7086 191.4837 198.25 189.2883 198.25 186.772 198.25 184.6752 197.6468 182.982 196.4424 181.2892 195.2311 180.1009 193.6137 179.4217 191.579 178.736 189.5511 178.3919 187.4543 178.3919 185.2957 178.3919 182.5061 178.7956 180.0814 179.6054 178.0007 180.4198 175.9269 181.6792 174.3715 183.3951 173.3414 185.1086 172.3116 186.9622 171.8022 188.9603 171.8022 191.3851 171.8022 193.4359 172.5021 195.1197 173.899 196.8058 175.3007 197.9413 177.3814 198.5355 180.1341ZM210.4118 168.6526V201.3973H214.7496V187.9498H231.7666V201.3973H236.1047V168.6526H231.7666V184.0844H214.7496V168.6526ZM245.3451 168.6526V201.3973H249.7884L266.989 175.6908V201.3973H271.1458V168.6526H266.6999L249.4996 194.3847V168.6526ZM279.1794 184.6029C279.1794 190.0375 280.6362 194.2929 283.5564 197.3645 286.4744 200.4384 290.2411 201.9779 294.8613 201.9779 297.8802 201.9779 300.6102 201.2528 303.035 199.8122 305.4597 198.3648 307.3133 196.3505 308.5863 193.7676 309.8597 191.1889 310.4904 188.2551 310.4904 184.9836 310.4904 181.6597 309.8276 178.6867 308.4854 176.0715 307.1435 173.4471 305.2463 171.4652 302.7917 170.1162 300.3279 168.7671 297.6829 168.0951 294.8383 168.0951 291.7508 168.0951 288.9978 168.836 286.5753 170.3296 284.1415 171.8161 282.3038 173.8531 281.0537 176.4292 279.8033 178.9985 279.1794 181.7286 279.1794 184.6029ZM283.646 184.534C283.646 180.5837 284.7059 177.4823 286.8253 175.2089 288.9541 172.9378 291.613 171.8022 294.8153 171.8022 298.08 171.8022 300.7638 172.9446 302.8674 175.2409 304.971 177.535 306.0309 180.7903 306.0309 185.0066 306.0309 187.6677 305.5745 189.9916 304.6751 191.9826 303.7737 193.9717 302.4544 195.5132 300.7247 196.6099 298.986 197.7018 297.0431 198.25 294.8842 198.25 291.8126 198.25 289.1744 197.1969 286.9631 195.0866 284.7515 192.9807 283.646 189.4592 283.646 184.534ZM317.969 168.6526V201.3973H322.3069V172.518H338.4317V168.6526ZM344.3479 184.6029C344.3479 190.0375 345.8047 194.2929 348.7249 197.3645 351.6429 200.4384 355.4096 201.9779 360.0298 201.9779 363.0487 201.9779 365.7787 201.2528 368.2035 199.8122 370.6282 198.3648 372.4818 196.3505 373.7548 193.7676 375.0282 191.1889 375.6589 188.2551 375.6589 184.9836 375.6589 181.6597 374.9958 178.6867 373.6539 176.0715 372.312 173.4471 370.4148 171.4652 367.9603 170.1162 365.4964 168.7671 362.8514 168.0951 360.0068 168.0951 356.919 168.0951 354.1663 168.836 351.7438 170.3296 349.31 171.8161 347.4723 173.8531 346.2222 176.4292 344.9718 178.9985 344.3479 181.7286 344.3479 184.6029ZM348.8145 184.534C348.8145 180.5837 349.8741 177.4823 351.9938 175.2089 354.1226 172.9378 356.7815 171.8022 359.9838 171.8022 363.2482 171.8022 365.9323 172.9446 368.0359 175.2409 370.1395 177.535 371.1994 180.7903 371.1994 185.0066 371.1994 187.6677 370.7427 189.9916 369.8436 191.9826 368.9422 193.9717 367.6229 195.5132 365.8932 196.6099 364.1545 197.7018 362.2113 198.25 360.0527 198.25 356.9811 198.25 354.3429 197.1969 352.1316 195.0866 349.92 192.9807 348.8145 189.4592 348.8145 184.534ZM398.645 181.499V185.3348L412.5124 185.3575V173.2107C410.3858 171.5108 408.1904 170.2378 405.9261 169.3774 403.662 168.5242 401.3359 168.0951 398.9571 168.0951 395.7409 168.0951 392.8136 168.781 390.1893 170.1621 387.5604 171.5338 385.5781 173.5319 384.2362 176.131 382.8943 178.7394 382.2222 181.6529 382.2222 184.8691 382.2222 188.0555 382.8943 191.0285 384.2271 193.7906 385.5555 196.5569 387.4754 198.6077 389.9758 199.95 392.4763 201.2851 395.3599 201.9549 398.622 201.9549 400.985 201.9549 403.1274 201.5739 405.0408 200.8032 406.9562 200.0415 408.4566 198.9748 409.5394 197.6009 410.6313 196.2289 411.4525 194.4442 412.026 192.242L408.1147 191.166C407.6192 192.8361 407.0089 194.1483 406.2841 195.1004 405.5522 196.0546 404.5085 196.8163 403.1504 197.3874 401.8017 197.9609 400.2922 198.25 398.645 198.25 396.663 198.25 394.9469 197.945 393.5064 197.3415 392.059 196.7406 390.8982 195.9469 390.0059 194.9627 389.1226 193.9808 388.4366 192.905 387.9411 191.7235 387.1106 189.7024 386.6907 187.507 386.6907 185.135 386.6907 182.217 387.1933 179.7763 388.2005 177.8102 389.2073 175.8421 390.6709 174.3854 392.5911 173.4333 394.5135 172.4791 396.5482 171.9995 398.7068 171.9995 400.5904 171.9995 402.4188 172.3666 404.2035 173.0891 405.995 173.8071 407.344 174.5756 408.2661 175.3994V181.499ZM421.7136 168.6526V201.3973H426.0447V168.6526ZM435.8472 168.6526V201.3973H459.519V197.532H440.176V187.507H458.2916V183.6646H440.176V172.518H460.2807V168.6526ZM466.8667 179.1729 470.9548 179.5331C471.145 177.893 471.5949 176.5508 472.3036 175.5003 473.0125 174.4472 474.1112 173.6008 475.5977 172.9517 477.0845 172.3048 478.7612 171.9836 480.6218 171.9836 482.2758 171.9836 483.7323 172.2288 484.9988 172.7152 486.2628 173.2107 487.2078 173.8828 487.8272 174.7363 488.4443 175.5989 488.7564 176.5278 488.7564 177.5418 488.7564 178.5719 488.4582 179.4643 487.857 180.2327 487.2628 181.0035 486.2786 181.6435 484.9138 182.162 484.0305 182.5061 482.0922 183.0385 479.0823 183.7633 476.0773 184.4881 473.9666 185.1673 472.7602 185.8073 471.1978 186.6217 470.0324 187.6448 469.2617 188.856 468.5 190.0695 468.1171 191.4253 468.1171 192.9348 468.1171 194.582 468.5828 196.1303 469.5211 197.564 470.4593 199.0046 471.831 200.0945 473.6296 200.8423 475.4373 201.581 477.4354 201.9549 479.6376 201.9549 482.0692 201.9549 484.2051 201.5671 486.0655 200.7802 487.9191 200.0027 489.3435 198.851 490.3415 197.3347 491.3325 195.8185 491.874 194.0956 491.9519 192.1731L487.7952 191.8613C487.5681 193.9258 486.8133 195.4973 485.5241 196.5501 484.2349 197.61 482.3376 198.1352 479.821 198.1352 477.199 198.1352 475.2927 197.6559 474.0883 196.6946 472.8909 195.7334 472.2877 194.5749 472.2877 193.2262 472.2877 192.0424 472.7143 191.0744 473.5607 190.3195 474.4003 189.5579 476.5728 188.7803 480.0963 187.9866 483.6178 187.1858 486.0357 186.493 487.3456 185.8989 489.2519 185.0136 490.6627 183.901 491.5687 182.5588 492.4772 181.2101 492.9267 179.6547 492.9267 177.8998 492.9267 176.154 492.4312 174.5161 491.4334 172.9746 490.4331 171.4351 488.9993 170.2378 487.1322 169.3774 485.2647 168.5242 483.1611 168.0951 480.8282 168.0951 477.862 168.0951 475.3752 168.5242 473.3796 169.3913 471.3746 170.2539 469.8031 171.5499 468.6585 173.2887 467.5229 175.0184 466.922 176.9868 466.8667 179.1729" fill="#1f1a17" fill-rule="evenodd"/>
</svg>
