<svg width="20" height="21" viewBox="0 0 20 21" fill="none" xmlns="http://www.w3.org/2000/svg">
<g clip-path="url(#clip0_1074_7635)">
<path d="M12.2529 17.4232L12.262 17.4296C13.049 17.9307 13.9835 18.1483 14.911 18.0465C15.8384 17.9446 16.7034 17.5294 17.3629 16.8694L17.9359 16.2964C18.0628 16.1696 18.1635 16.0189 18.2323 15.8531C18.301 15.6872 18.3364 15.5095 18.3364 15.33C18.3364 15.1505 18.301 14.9728 18.2323 14.8069C18.1635 14.6411 18.0628 14.4904 17.9359 14.3636L15.5193 11.9488C15.3924 11.8218 15.2417 11.7211 15.0759 11.6524C14.9101 11.5837 14.7324 11.5483 14.5529 11.5483C14.3734 11.5483 14.1956 11.5837 14.0298 11.6524C13.864 11.7211 13.7133 11.8218 13.5864 11.9488C13.3302 12.205 12.9827 12.3488 12.6204 12.3488C12.2581 12.3488 11.9107 12.205 11.6544 11.9488L7.79048 8.08394C7.53433 7.82772 7.39044 7.48025 7.39044 7.11796C7.39044 6.75566 7.53433 6.40819 7.79048 6.15197C7.91745 6.02508 8.01817 5.87442 8.08689 5.70859C8.1556 5.54277 8.19097 5.36502 8.19097 5.18552C8.19097 5.00602 8.1556 4.82828 8.08689 4.66245C8.01817 4.49663 7.91745 4.34597 7.79048 4.21908L5.37482 1.80434C5.1186 1.54819 4.77114 1.4043 4.40884 1.4043C4.04654 1.4043 3.69907 1.54819 3.44285 1.80434L2.86899 2.37728C2.20914 3.03692 1.79408 3.90194 1.69239 4.8294C1.5907 5.75686 1.80847 6.69126 2.30971 7.47821L2.31518 7.48732C4.96236 11.4039 8.3358 14.7767 12.2529 17.4232V17.4232Z" stroke="#C1C1C1" stroke-width="1.4" stroke-linecap="round" stroke-linejoin="round"/>
</g>
<defs>
<clipPath id="clip0_1074_7635">
<rect width="20" height="20" fill="white" transform="translate(0 0.0371094)"/>
</clipPath>
</defs>
</svg>
